<?xml version="1.0" encoding="UTF-8" standalone="no"?>
<!-- Created with Inkscape (http://www.inkscape.org/) -->

<svg
   xmlns:dc="http://purl.org/dc/elements/1.1/"
   xmlns:cc="http://creativecommons.org/ns#"
   xmlns:rdf="http://www.w3.org/1999/02/22-rdf-syntax-ns#"
   xmlns:svg="http://www.w3.org/2000/svg"
   xmlns="http://www.w3.org/2000/svg"
   xmlns:sodipodi="http://sodipodi.sourceforge.net/DTD/sodipodi-0.dtd"
   xmlns:inkscape="http://www.inkscape.org/namespaces/inkscape"
   width="210mm"
   height="297mm"
   viewBox="0 0 210 297"
   version="1.1"
   id="svg8"
   inkscape:version="0.92.4 (5da689c313, 2019-01-14)"
   sodipodi:docname="wisconsin_racing_car_logo.svg">
  <defs
     id="defs2" />
  <sodipodi:namedview
     id="base"
     pagecolor="#ffffff"
     bordercolor="#666666"
     borderopacity="1.0"
     inkscape:pageopacity="0.0"
     inkscape:pageshadow="2"
     inkscape:zoom="1"
     inkscape:cx="531.571"
     inkscape:cy="535.45795"
     inkscape:document-units="mm"
     inkscape:current-layer="layer1"
     showgrid="false"
     inkscape:window-width="1920"
     inkscape:window-height="1057"
     inkscape:window-x="-8"
     inkscape:window-y="-8"
     inkscape:window-maximized="1" />
  <metadata
     id="metadata5">
    <rdf:RDF>
      <cc:Work
         rdf:about="">
        <dc:format>image/svg+xml</dc:format>
        <dc:type
           rdf:resource="http://purl.org/dc/dcmitype/StillImage" />
        <dc:title></dc:title>
      </cc:Work>
    </rdf:RDF>
  </metadata>
  <g
     inkscape:label="Layer 1"
     inkscape:groupmode="layer"
     id="layer1">
    <path
       style="fill:#b21f2d;fill-opacity:1;stroke-width:0.12914525"
       d="m 75.289348,156.6125 c -0.07486,-0.12112 2.346949,-4.47392 2.749838,-4.94238 0.172703,-0.20081 0.473953,-0.226 2.70262,-0.226 h 2.508252 l 0.386198,-0.3862 c 0.279242,-0.27924 0.374848,-0.4849 0.345216,-0.74259 l -0.04098,-0.35638 -2.407985,-0.0351 c -1.716969,-0.025 -2.442427,-0.0806 -2.528008,-0.19372 -0.06601,-0.0872 -0.188313,-0.39783 -0.271779,-0.69019 -0.295168,-1.0339 -0.605639,-0.95383 3.690315,-0.9517 3.965482,0.002 4.286873,0.0398 4.600131,0.54145 0.207865,0.33288 -0.03223,1.05049 -0.764951,2.28628 -0.49469,0.83433 -0.740826,1.121 -1.090844,1.27047 -0.744531,0.31794 -0.841719,0.38803 -0.789504,0.56939 0.02747,0.0954 0.0771,0.30041 0.110302,0.4556 0.07536,0.35225 -0.715602,3.09595 -0.964175,3.34453 -0.280967,0.28096 -2.082087,0.25569 -2.192009,-0.0308 -0.04514,-0.11763 0.106777,-0.7511 0.337588,-1.40771 0.230811,-0.65661 0.400326,-1.33039 0.376699,-1.4973 -0.04092,-0.28908 -0.09719,-0.30526 -1.185751,-0.34098 -0.697992,-0.0229 -1.209549,0.0179 -1.314304,0.10485 -0.09433,0.0783 -0.531621,0.76349 -0.971755,1.52267 -1.109652,1.91402 -1.011511,1.83233 -2.201362,1.83233 -0.553039,0 -1.040725,-0.057 -1.083748,-0.12657 z m 11.474251,-0.0677 c -0.04392,-0.11446 0.674031,-1.48566 1.747515,-3.33753 1.002135,-1.72879 1.822064,-3.25824 1.822064,-3.39879 0,-0.14054 -0.09481,-0.53378 -0.210688,-0.87386 -0.177639,-0.52134 -0.182703,-0.63607 -0.03229,-0.73133 0.261181,-0.16542 7.221723,-0.14682 7.701933,0.0206 0.23124,0.0806 0.4547,0.28285 0.53996,0.48868 0.18996,0.4586 -0.003,1.00673 -0.89405,2.53785 -0.37197,0.63927 -1.17307,2.03404 -1.78022,3.09949 -0.60715,1.06544 -1.190852,2.03888 -1.297116,2.16318 -0.153322,0.17935 -0.40079,0.226 -1.198732,0.226 -0.553039,0 -1.042086,-0.0592 -1.086774,-0.13146 -0.04469,-0.0723 0.297579,-0.80915 0.760591,-1.63743 0.463011,-0.82827 0.812348,-1.55367 0.776304,-1.61199 -0.03604,-0.0583 -0.639301,-0.10604 -1.340571,-0.10604 -1.479887,0 -1.266409,-0.17001 -2.513482,2.00175 -0.407867,0.7103 -0.808539,1.33415 -0.890381,1.38634 -0.08184,0.0522 -0.571964,0.0958 -1.08916,0.0969 -0.719242,0.002 -0.957887,-0.0437 -1.014907,-0.1923 z m 8.039354,-5.19952 c 0.18597,-0.12304 0.56689,-0.86743 0.56689,-1.10781 0,-0.27037 -0.2895,-0.34309 -1.365779,-0.34309 h -0.957216 l -0.388246,0.53595 c -0.66326,0.91561 -0.584757,1.01411 0.806348,1.01181 0.657027,-0.001 1.259133,-0.0447 1.338003,-0.0969 z m 3.66852,5.22771 c -0.61305,-0.31018 -0.61962,-0.72726 -0.0302,-1.92191 0.80848,-1.63876 3.014287,-5.35844 3.446507,-5.81186 0.66164,-0.69411 0.9633,-0.75307 3.84186,-0.7509 1.44063,10e-4 2.68937,0.0465 2.77498,0.1009 0.11326,0.072 0.0395,0.30878 -0.27082,0.86975 l -0.42646,0.77083 -2.01838,0.0646 c -1.79949,0.0576 -2.04558,0.0926 -2.26914,0.32286 -0.34967,0.36017 -2.46755,4.0136 -2.46755,4.25662 0,0.16842 0.24589,0.19889 1.60509,0.19889 1.84296,0 1.89871,0.0268 2.13933,1.02985 0.26072,1.0868 0.40582,1.03672 -2.99778,1.03457 -2.154057,-0.001 -3.097627,-0.0479 -3.327397,-0.16418 z m 9.845327,0.0597 c -0.16366,-0.10392 0.16338,-0.70718 3.40794,-6.28633 l 1.27677,-2.19547 1.08406,-0.0378 c 0.59622,-0.0208 1.13339,0.0115 1.19371,0.0718 0.11738,0.11739 -4.438,8.12199 -4.77627,8.39274 -0.22357,0.17895 -1.92368,0.22177 -2.18621,0.0551 z m 6.55397,-0.0631 c 0,-0.0932 0.80886,-1.5655 1.79746,-3.27182 0.98861,-1.70633 1.81394,-3.18467 1.83407,-3.28522 0.0201,-0.10054 -0.0392,-0.48859 -0.13182,-0.86232 -0.0926,-0.37373 -0.13522,-0.76601 -0.0947,-0.87173 0.063,-0.1643 0.63238,-0.19194 3.91988,-0.19031 2.82801,0.001 3.93102,0.0449 4.16684,0.16417 0.37451,0.18949 0.58877,0.70043 0.47786,1.13952 -0.0722,0.28575 -3.82006,6.8238 -4.11914,7.1857 -0.14943,0.18081 -2.23785,0.23288 -2.34564,0.0585 -0.035,-0.0566 0.71708,-1.45698 1.67127,-3.1119 0.95419,-1.65493 1.73489,-3.11339 1.73489,-3.24101 0,-0.3231 -0.24949,-0.38883 -1.47571,-0.38883 -0.85431,0 -1.10692,0.0451 -1.26648,0.226 -0.10963,0.1243 -1.00188,1.62077 -1.98278,3.32549 -0.98089,1.70472 -1.84458,3.14218 -1.9193,3.19437 -0.0747,0.0522 -0.6153,0.0958 -1.2013,0.0969 -0.79406,0.001 -1.06545,-0.0412 -1.06545,-0.16745 z m 12.10711,0.0238 c -0.43073,-0.16285 -0.57331,-0.62387 -0.3971,-1.28403 0.14343,-0.53735 2.83347,-5.23262 3.53176,-6.16441 0.77887,-1.03933 0.86362,-1.05825 4.74346,-1.05848 2.4899,-1.3e-4 3.39006,0.0397 3.39006,0.14993 0,0.17615 -0.76978,1.42066 -0.96435,1.55907 -0.0734,0.0522 -1.18953,0.0958 -2.48038,0.0969 -2.29538,0.002 -2.35519,0.009 -2.7198,0.31567 -0.32388,0.27253 -1.71672,2.49286 -2.31063,3.68338 -0.30947,0.62034 -0.0918,0.7813 1.05672,0.7813 1.1989,0 1.51497,-0.12491 1.93954,-0.76647 0.40628,-0.61393 0.34353,-0.91242 -0.19182,-0.91242 -0.21112,0 -0.4144,-0.0494 -0.45173,-0.10981 -0.0373,-0.0604 0.11956,-0.42362 0.34864,-0.80716 l 0.4165,-0.69734 1.83921,-0.0358 c 1.46128,-0.0285 1.83921,-5.1e-4 1.83921,0.13575 0,0.17978 -1.28839,2.47268 -2.09991,3.73714 -0.26035,0.40566 -0.71808,0.89964 -1.01719,1.09773 l -0.54382,0.36017 -2.78648,0.0267 c -1.68469,0.0161 -2.92701,-0.0265 -3.14189,-0.10771 z m -97.646885,-2.00477 c -0.125733,-1.48742 -0.101471,-2.19403 0.08052,-2.34507 0.178854,-0.14844 1.177458,-0.21336 6.551511,-0.42594 l 3.551495,-0.14049 6.069827,-3.05983 c 3.338405,-1.68291 6.799356,-3.35878 7.691003,-3.72417 l 1.621176,-0.66433 3.480061,0.11868 c 1.914034,0.0653 6.639528,0.20832 10.501099,0.31786 4.33992,0.12312 7.119424,0.25183 7.278682,0.33707 0.237067,0.12687 0.250605,0.222 0.169511,1.19116 -0.04847,0.5793 -0.179648,3.73559 -0.234337,3.9842 -0.09956,0.45256 -0.08648,-2.23826 -0.26129,-4.4161 -0.03159,-0.39356 1.180181,-0.41539 -10.93869,0.19701 l -9.36303,0.47315 -1.872607,0.88619 c -2.017296,0.95468 -3.387522,1.52593 -9.704203,4.04569 l -4.086383,1.63009 -1.466863,-0.01 c -0.806773,-0.005 -3.006918,-0.0825 -4.88921,-0.17108 -2.162565,-0.10182 -3.481773,-0.1161 -3.583781,-0.0388 -0.08879,0.0673 -0.161845,0.33314 -0.16235,0.5908 -0.0016,3.77971 -0.162619,4.20585 -0.257097,4.17638 -0.04806,-0.015 -0.199263,-0.65511 -0.175043,-2.95251 z m 49.832073,-8.30884 c -0.05009,-0.0811 0.251779,-0.73929 0.670824,-1.46276 0.419045,-0.72347 1.273057,-2.19662 1.897804,-3.27366 l 1.135902,-1.95826 -0.20614,-0.70909 c -0.347347,-1.19484 -0.456546,-1.12136 1.666465,-1.12136 1.23512,0 1.872607,0.0467 1.872607,0.13715 0,0.0754 -0.753261,1.44248 -1.673914,3.0379 -0.920652,1.59541 -1.690681,3.00111 -1.711175,3.12377 -0.05406,0.32359 1.271687,0.38333 1.89915,0.0856 0.49367,-0.23426 0.718966,-0.5685 2.780088,-4.12436 0.658749,-1.13647 1.261794,-2.10902 1.3401,-2.1612 0.21735,-0.14485 2.27327,-0.11887 2.27327,0.0287 0,0.0702 -0.688424,1.30511 -1.529831,2.74434 -1.689484,2.88986 -1.957091,3.37924 -1.957091,3.57895 0,0.19742 1.352626,0.16784 1.844468,-0.0403 0.610595,-0.25844 0.766567,-0.47602 2.540754,-3.54428 l 1.620033,-2.80166 1.085721,-0.0378 c 0.59715,-0.0208 1.13223,0.009 1.18907,0.0655 0.11682,0.11682 -3.530298,6.4395 -4.122413,7.14665 -0.211275,0.25232 -0.75372,0.65897 -1.205435,0.90367 -0.810047,0.4388 -0.846501,0.44551 -2.660456,0.48962 -1.692303,0.0411 -1.886865,0.0216 -2.436661,-0.24452 -0.592248,-0.28671 -0.601067,-0.2871 -1.002041,-0.0444 -0.350839,0.21238 -0.724116,0.25048 -2.81228,0.28705 -1.705231,0.0299 -2.434318,-7.8e-4 -2.498819,-0.1052 z m 16.368355,0.0212 c -0.16408,-0.10419 0.26409,-0.8924 3.41482,-6.28633 l 1.282437,-2.19546 1.07778,-0.0378 c 0.59278,-0.0208 1.12907,0.0135 1.19176,0.0762 0.1223,0.12229 -4.428807,8.11197 -4.778227,8.38841 -0.22612,0.17889 -1.9262,0.22167 -2.18857,0.0551 z m 6.616707,-0.0257 c -0.10821,-0.17509 0.78012,-1.75396 1.04377,-1.85513 0.11334,-0.0435 1.15547,-0.0791 2.31584,-0.0791 1.16037,0 2.2017,-0.0353 2.31405,-0.0784 0.39354,-0.15102 0.20099,-0.63334 -0.62216,-1.55847 -1.67346,-1.88075 -1.87378,-2.31214 -1.5617,-3.36304 0.22424,-0.75508 0.71706,-1.2465 1.45585,-1.45168 0.26415,-0.0734 1.74429,-0.13371 3.28919,-0.13411 2.29663,-6.4e-4 2.80891,0.0316 2.80891,0.17673 0,0.22063 -0.59514,1.29869 -0.81992,1.48524 -0.0949,0.0788 -0.93634,0.1532 -1.96536,0.17383 -1.73902,0.0349 -1.80072,0.0456 -1.83955,0.31833 -0.0275,0.19324 0.21199,0.5801 0.75953,1.22688 1.01668,1.20093 1.33843,1.88968 1.23507,2.64381 -0.16777,1.22398 -0.89612,2.08805 -2.04856,2.43029 -0.79379,0.23573 -6.22514,0.29102 -6.36496,0.0648 z m 11.23747,-0.0222 c -0.36132,-0.20489 -0.44776,-0.36568 -0.45003,-0.83717 -0.002,-0.46277 0.33425,-1.1313 2.09696,-4.16629 2.09897,-3.61395 1.89447,-3.4881 5.67444,-3.49211 1.72002,-0.002 2.70183,0.0452 2.75546,0.13197 0.0458,0.0742 -0.11325,0.46643 -0.3535,0.87173 l -0.43681,0.73692 -1.9536,0.0646 c -1.84948,0.0611 -1.97146,0.0814 -2.28866,0.37981 -0.35072,0.33 -2.52593,3.98877 -2.52593,4.24871 0,0.10595 0.48727,0.14985 1.66308,0.14985 1.17536,0 1.70101,0.0473 1.79244,0.16143 0.0712,0.0888 0.22767,0.50415 0.34781,0.92304 0.17885,0.62355 0.18753,0.7812 0.0479,0.86975 -0.2676,0.16967 -6.06362,0.13126 -6.36954,-0.0422 z m 10.00876,-0.10397 c -0.35183,-0.35183 -0.32515,-0.90941 0.0821,-1.71546 0.5013,-0.99225 2.58918,-4.55995 3.17888,-5.43198 0.79373,-1.17373 1.02218,-1.24073 4.24248,-1.24416 2.86697,-0.003 3.35145,0.0777 3.58858,0.59814 0.12718,0.27913 0.099,0.44192 -0.18329,1.05902 -0.57308,1.25272 -3.07057,5.44873 -3.60628,6.05886 -0.78729,0.89666 -0.95459,0.93387 -4.19882,0.93387 -2.67315,0 -2.86097,-0.0156 -3.10363,-0.25829 z m 5.55324,-2.05076 c 0.29546,-0.21526 1.19029,-1.62221 2.13094,-3.3505 0.5174,-0.95064 0.39988,-1.10978 -0.85306,-1.15518 -1.22244,-0.0443 -1.59475,0.17096 -2.21402,1.2801 -0.25207,0.45146 -0.72571,1.28435 -1.05253,1.85087 -0.6694,1.16032 -0.74367,1.56699 -0.30366,1.66264 0.57791,0.12562 1.96361,-0.0484 2.29233,-0.28793 z m 5.16581,2.14708 c 0,-0.0891 0.76055,-1.46932 1.69011,-3.0672 2.28606,-3.92964 2.08212,-3.4527 1.84012,-4.30339 -0.34393,-1.20899 -0.60724,-1.13603 3.94481,-1.09317 3.71476,0.035 4.01104,0.0547 4.26382,0.2836 0.34874,0.31583 0.34713,0.84263 -0.005,1.53487 -0.35988,0.7081 -3.43517,5.99087 -3.756,6.45211 -0.23615,0.33949 -0.29473,0.35515 -1.32836,0.35515 -0.59473,0 -1.10968,-0.0459 -1.14433,-0.10195 -0.0347,-0.0561 0.72069,-1.45662 1.67856,-3.11231 1.08106,-1.86863 1.72657,-3.11569 1.702,-3.28811 -0.037,-0.25952 -0.12213,-0.28018 -1.29738,-0.3147 l -1.25779,-0.0369 -0.43465,0.68267 c -0.23907,0.37547 -1.12075,1.87404 -1.95932,3.33015 -0.83856,1.45611 -1.58796,2.69017 -1.66533,2.74236 -0.25591,0.1726 -2.27158,0.11658 -2.27158,-0.0631 z m 11.67702,-0.0129 c -0.0412,-0.10743 0.0849,-0.47526 0.28027,-0.8174 0.65218,-1.14215 0.46033,-1.07409 3.02776,-1.07409 3.15911,0 3.13861,0.0354 1.26077,-2.17978 -1.13961,-1.34437 -1.38983,-1.93085 -1.15632,-2.71025 0.2065,-0.68923 0.61556,-1.16913 1.23723,-1.45148 0.46263,-0.21011 0.88429,-0.23957 3.46478,-0.24206 2.26614,-0.002 2.93794,0.0341 2.93753,0.15859 0,0.0888 -0.1927,0.48107 -0.42758,0.87173 l -0.42703,0.7103 -1.79153,0.0361 c -1.72346,0.0347 -2.1323,0.12372 -2.13126,0.46402 2.6e-4,0.0801 0.35407,0.55243 0.78628,1.04964 1.00101,1.15153 1.3054,1.74268 1.29934,2.52339 -0.009,1.15334 -0.55433,2.02159 -1.56949,2.49853 -0.53083,0.24939 -0.84672,0.27671 -3.64847,0.31556 -2.64505,0.0367 -3.07764,0.0156 -3.14228,-0.15279 z m 10.73029,0.0467 c -0.0436,-0.0705 1.01362,-2.00282 2.34928,-4.29408 l 2.42849,-4.16592 1.08572,-0.0378 c 0.59716,-0.0208 1.13297,0.009 1.19071,0.0671 0.11046,0.11045 -4.55813,8.28148 -4.8306,8.45459 -0.23118,0.14688 -2.13067,0.12648 -2.2236,-0.0239 z m 6.65038,-0.0617 c 0,-0.10441 0.81361,-1.58605 1.80803,-3.29252 0.99442,-1.70648 1.8074,-3.23375 1.80664,-3.39394 -0.001,-0.16019 -0.0884,-0.57811 -0.19478,-0.92871 -0.15384,-0.50715 -0.16015,-0.65854 -0.0309,-0.74061 0.23147,-0.14695 7.63435,-0.13232 8.02408,0.0159 0.42782,0.16265 0.63914,0.58498 0.54302,1.08523 -0.0429,0.22336 -0.99261,1.97523 -2.11043,3.89304 l -2.0324,3.48692 -1.08572,0.0378 c -0.59716,0.0208 -1.13555,-0.012 -1.19643,-0.0729 -0.0615,-0.0615 0.66491,-1.45488 1.63459,-3.13539 0.95991,-1.66357 1.7453,-3.08658 1.7453,-3.16222 0,-0.33902 -0.349,-0.44748 -1.43986,-0.44748 -1.36974,0 -1.10327,-0.28843 -3.34088,3.61606 -0.87519,1.52715 -1.67756,2.87833 -1.78306,3.00263 -0.26047,0.30694 -2.34722,0.33909 -2.34722,0.0362 z M 39.691863,149.627 c -0.126769,0.0761 -2.748712,-1.09894 -3.499981,-1.525 -0.808587,-0.57162 -1.04789,-0.73344 -1.201372,-1.16223 -0.133815,-0.42174 0.646466,-1.14593 2.924518,-3.32876 3.843816,-3.1776 8.426824,-5.955 12.641411,-7.47344 2.666099,-0.96055 7.216929,-2.33596 10.396193,-3.14209 10.69258,-2.71117 23.404708,-4.58803 26.239833,-3.87414 0.429383,0.10812 0.813081,0.35743 1.411187,0.91693 0.909026,0.85035 1.356415,1.03642 3.79585,1.57866 2.814041,0.62551 5.711071,1.01217 10.396188,1.38757 3.90526,0.31291 25.11302,0.14977 25.45863,-0.19584 0.0801,-0.0801 -0.0874,-1.74987 -1.19451,-11.91095 -0.66056,-6.06249 -0.65918,-6.12846 0.14656,-7.02032 0.76406,-0.84572 1.95119,-1.00608 3.47292,-0.46913 2.89322,1.02088 7.63021,5.70246 10.34723,10.22619 0.69157,1.15145 1.24496,2.29659 2.01197,4.16345 0.43847,1.0672 0.60165,-1.47676 0.70333,-10.96471 0.0616,-5.74894 0.11053,-7.1371 0.26697,-7.57709 0.86523,-2.43344 6.76316,-4.0668 18.19372,-5.03854 2.04041,-0.17346 4.03932,-0.23102 8.07157,-0.23244 5.19964,-0.002 7.32407,0.14708 9.06199,0.54439 0.29918,0.18873 0.50521,0.39941 0.50927,0.64759 0.0448,2.73795 -0.0198,3.12408 -0.0811,3.12283 -0.21364,-0.004 -0.131,-3.03333 -0.25857,-3.16642 -0.37618,-0.41545 -3.47134,-0.65501 -4.5089,-0.66861 -7.49284,-0.0984 -16.77945,0.72355 -23.06128,2.11796 -3.52874,0.78329 -6.29663,1.95665 -6.69904,2.83984 -0.11323,0.24852 -0.11399,1.80912 -0.003,6.42004 0.14726,6.1235 0.0855,12.05152 -0.13989,13.43662 -0.0667,0.40972 -0.2681,1.06574 -0.44759,1.4578 -0.41116,0.89808 -1.64724,2.13264 -2.41605,2.41307 -0.30876,0.11262 -2.76976,0.56118 -5.46889,0.9968 -2.69914,0.43561 -5.1981,0.84475 -5.55325,0.90919 -0.90191,0.16364 -6.39482,0.59148 -9.94418,0.77455 -3.21711,0.16594 -10.18316,0.095 -13.94769,-0.1421 -6.55479,-0.41278 -12.176067,-1.22598 -16.055356,-2.32263 -2.26955,-0.64158 -2.727056,-0.86448 -3.676274,-1.79108 l -0.747282,-0.72948 -2.675067,0.009 c -8.283283,0.0284 -24.453877,2.99992 -34.078413,6.26223 -4.092497,1.38718 -10.451746,5.95125 -14.014024,9.05482 -1.771123,1.48864 3.792896,3.23889 3.622399,3.45547 z m 91.903217,-17.03419 c 1.53293,-0.11541 9.07731,-1.05818 9.90848,-1.23819 0.39303,-0.0851 1.48438,-1.22282 1.59472,-1.66243 0.0924,-0.36803 -0.29262,-1.32865 -1.12243,-2.80066 -2.30445,-4.08795 -6.95527,-8.50887 -10.99514,-10.45165 -1.24504,-0.59874 -1.93393,-0.77566 -2.08273,-0.53489 -0.10055,0.1627 -0.25854,16.49682 -0.162,16.74842 0.0695,0.18105 0.18778,0.20801 0.63283,0.14424 0.30106,-0.0431 1.30288,-0.13532 2.22627,-0.20484 z"
       id="path3724"
       inkscape:connector-curvature="0"
       sodipodi:nodetypes="ccsccccccsccccccccscccssccccscccccccscccsccccccssccccccscccccccsscccccccccccccccccccccccsscccccccsccsccccscsccccsccccccccccscccccccscccccccccscccscccsscccccscsccccccccccccccccccsccccscccccsccccccccccsccccccsscccccccccccssccccccccccccccccsccccccccccccsccccccccccccccccccccccccccccccsccccssscccccccsccsssscccccccsccssccscccccccccccccsccscccccccs" />
  </g>
</svg>
